<svg width="200" height="200" viewBox="0 0 200 200" xmlns="http://www.w3.org/2000/svg">
  <defs>
    <!-- Gradient for depth -->
    <linearGradient id="primaryGradient" x1="0%" y1="0%" x2="100%" y2="100%">
      <stop offset="0%" style="stop-color:#474A8A;stop-opacity:1" />
      <stop offset="50%" style="stop-color:#787CB5;stop-opacity:1" />
      <stop offset="100%" style="stop-color:#B0B3D6;stop-opacity:1" />
    </linearGradient>
    
    <!-- Light mode version -->
    <style>
      .logo-light { display: block; }
      .logo-dark { display: none; }
      
      @media (prefers-color-scheme: dark) {
        .logo-light { display: none; }
        .logo-dark { display: block; }
      }
    </style>
  </defs>
  
  <!-- Main container circle -->
  <circle cx="100" cy="100" r="90" fill="none" stroke="#B0B3D6" stroke-width="2" opacity="0.3"/>
  
  <!-- Central hub (inspired by Kubernetes node) -->
  <circle cx="100" cy="100" r="12" fill="#474A8A"/>
  
  <!-- Six spokes radiating out (like Kubernetes + Helm wheel) -->
  <g stroke="#474A8A" stroke-width="3" fill="none">
    <!-- Top -->
    <line x1="100" y1="100" x2="100" y2="40" stroke-linecap="round"/>
    <!-- Top-right -->
    <line x1="100" y1="100" x2="152" y2="70" stroke-linecap="round"/>
    <!-- Bottom-right -->
    <line x1="100" y1="100" x2="152" y2="130" stroke-linecap="round"/>
    <!-- Bottom -->
    <line x1="100" y1="100" x2="100" y2="160" stroke-linecap="round"/>
    <!-- Bottom-left -->
    <line x1="100" y1="100" x2="48" y2="130" stroke-linecap="round"/>
    <!-- Top-left -->
    <line x1="100" y1="100" x2="48" y2="70" stroke-linecap="round"/>
  </g>
  
  <!-- Outer nodes (inspired by PHP's circular elements) -->
  <g fill="#787CB5">
    <circle cx="100" cy="40" r="8"/>
    <circle cx="152" cy="70" r="8"/>
    <circle cx="152" cy="130" r="8"/>
    <circle cx="100" cy="160" r="8"/>
    <circle cx="48" cy="130" r="8"/>
    <circle cx="48" cy="70" r="8"/>
  </g>
  
  <!-- Cloud-like connecting arcs (subtle) -->
  <g stroke="#B0B3D6" stroke-width="2" fill="none" opacity="0.6">
    <path d="M 108 40 Q 130 55 152 70" stroke-linecap="round"/>
    <path d="M 152 78 Q 152 100 152 122" stroke-linecap="round"/>
    <path d="M 152 130 Q 130 145 108 160" stroke-linecap="round"/>
    <path d="M 92 160 Q 70 145 48 130" stroke-linecap="round"/>
    <path d="M 48 122 Q 48 100 48 78" stroke-linecap="round"/>
    <path d="M 48 70 Q 70 55 92 40" stroke-linecap="round"/>
  </g>
  
  <!-- Inner detail rings (playful element) -->
  <g stroke="#787CB5" stroke-width="1.5" fill="none" opacity="0.7">
    <circle cx="100" cy="100" r="25"/>
    <circle cx="100" cy="100" r="60"/>
  </g>
  
  <!-- Small accent dots for playfulness -->
  <g fill="#B0B3D6" opacity="0.8">
    <circle cx="75" cy="75" r="2"/>
    <circle cx="125" cy="75" r="2"/>
    <circle cx="125" cy="125" r="2"/>
    <circle cx="75" cy="125" r="2"/>
  </g>
</svg>